<svg xmlns="http://www.w3.org/2000/svg" version="1.1" xmlns:xlink="http://www.w3.org/1999/xlink" xmlns:svgjs="http://svgjs.com/svgjs" width="1440" height="1550" preserveAspectRatio="none" viewBox="0 0 1440 1550"><g mask="url(&quot;#SvgjsMask1046&quot;)" fill="none"><path d="M-231.82 997.1C-23.48 976.39 77.15 513.99 464.69 532.1 852.22 550.21 865.47 1521.71 1161.19 1680.96" stroke="rgba(233, 59, 5, 0.58)" stroke-width="2"></path><path d="M-160.55 244.55C-39.7 248.72 61.05 438.3 282.65 438.3 504.25 438.3 383.77 114.64 725.84 244.55 1067.92 374.46 937.61 1330.88 1169.04 1603.01" stroke="rgba(233, 59, 5, 0.58)" stroke-width="2"></path><path d="M-46.13 1051.57C122.52 946.48 96.09 320.72 335.03 354.07 573.98 387.42 512.44 1376.03 716.2 1643.34" stroke="rgba(233, 59, 5, 0.58)" stroke-width="2"></path><path d="M-105.13 320.52C22.86 324.21 131.93 514.27 368.99 514.27 606.05 514.27 480.52 187.61 843.11 320.52 1205.7 453.43 1071.41 1453.65 1317.23 1733.73" stroke="rgba(233, 59, 5, 0.58)" stroke-width="2"></path><path d="M-150.75 1003.8C101.58 953.42 268.36 274.21 606.09 306.3 943.82 338.39 777.12 1437.84 984.51 1747.19" stroke="rgba(233, 59, 5, 0.58)" stroke-width="2"></path></g><defs><mask id="SvgjsMask1046"><rect width="1440" height="1550" fill="#ffffff"></rect></mask></defs></svg>