<svg data-v-423bf9ae="" xmlns="http://www.w3.org/2000/svg" viewBox="0 0 520 90" class="iconLeft"><!----><!----><!----><g data-v-423bf9ae="" id="c82bad4f-cfeb-46e8-8c04-8f7b1e43d156" fill="black" transform="matrix(4.62606038369033,0,0,4.62606038369033,110.00837169085435,-1.7000800332792636)"><path d="M0.06 6.83L2.45 13.78L5.05 13.78L7.45 6.83L5.54 6.83L3.84 12.24L3.67 12.24L1.96 6.83ZM7.56 6.83L9.95 13.78L12.56 13.78L14.95 6.83L13.05 6.83L11.34 12.24L11.17 12.24L9.46 6.83ZM17.58 6.83L15.85 6.83L15.85 13.78L17.61 13.78L17.61 9.88C17.61 8.90 18.26 8.43 19.15 8.43L20.19 8.43L20.19 6.80L19.49 6.80C18.61 6.80 18.02 7.07 17.75 7.84L17.58 7.84ZM26.40 6.83L26.40 7.81L26.21 7.81C25.84 7.22 25.23 6.64 24.00 6.64C22.26 6.64 20.80 8.12 20.80 10.19C20.80 12.26 22.26 13.75 24.00 13.75C25.23 13.75 25.84 13.16 26.21 12.57L26.38 12.57L26.38 14.62C26.38 14.90 26.24 15.04 25.98 15.04L21.50 15.04L21.50 16.58L26.77 16.58C27.55 16.58 28.14 16.02 28.14 15.23L28.14 6.83ZM24.47 12.18C23.41 12.18 22.57 11.48 22.57 10.19C22.57 8.90 23.41 8.20 24.47 8.20C25.56 8.20 26.38 8.93 26.38 10.19C26.38 11.45 25.56 12.18 24.47 12.18ZM29.46 4.82C29.46 5.53 30.00 6.02 30.70 6.02C31.40 6.02 31.95 5.53 31.95 4.82C31.95 4.10 31.40 3.61 30.70 3.61C30.00 3.61 29.46 4.10 29.46 4.82ZM31.58 6.83L29.82 6.83L29.82 13.78L31.58 13.78ZM32.48 6.83L34.87 13.78L37.48 13.78L39.87 6.83L37.97 6.83L36.26 12.24L36.09 12.24L34.38 6.83ZM40.35 10.25C40.35 12.40 41.85 13.97 43.92 13.97C45.78 13.97 46.59 12.99 47.07 12.26L45.56 11.40C45.32 11.89 44.87 12.43 43.89 12.43C42.88 12.43 42.22 11.72 42.18 10.82L47.32 10.82L47.32 10.14C47.32 8.05 45.91 6.64 43.89 6.64C41.85 6.64 40.35 8.15 40.35 10.25ZM42.20 9.59C42.31 8.76 42.88 8.18 43.88 8.18C44.79 8.18 45.40 8.74 45.50 9.59ZM48.24 8.43L49.67 9.35C50.11 8.62 50.68 8.15 51.60 8.15C52.56 8.15 53.06 8.67 53.06 9.32L53.06 9.49L50.27 9.80C48.99 9.94 48.10 10.70 48.10 11.80C48.10 13.13 49.14 13.97 50.71 13.97C52.21 13.97 52.72 13.24 52.89 12.94L53.09 12.94L53.09 13.78L54.82 13.78L54.82 9.34C54.82 7.71 53.59 6.64 51.70 6.64C50.01 6.64 49.07 7.39 48.24 8.43ZM49.95 11.70C49.95 11.30 50.27 11.06 50.93 10.98L53.06 10.72L53.06 10.84C53.06 11.79 52.37 12.52 51.14 12.52C50.36 12.52 49.95 12.18 49.95 11.70ZM55.78 6.83L57.15 13.78L59.67 13.78L60.76 8.34L60.93 8.34L62.02 13.78L64.54 13.78L65.91 6.83L64.15 6.83L63.32 12.26L63.15 12.26L62.06 6.83L59.63 6.83L58.53 12.26L58.37 12.26L57.54 6.83ZM66.61 8.43L68.04 9.35C68.47 8.62 69.05 8.15 69.97 8.15C70.92 8.15 71.43 8.67 71.43 9.32L71.43 9.49L68.64 9.80C67.35 9.94 66.47 10.70 66.47 11.80C66.47 13.13 67.51 13.97 69.08 13.97C70.57 13.97 71.09 13.24 71.26 12.94L71.46 12.94L71.46 13.78L73.19 13.78L73.19 9.34C73.19 7.71 71.96 6.64 70.07 6.64C68.38 6.64 67.44 7.39 66.61 8.43ZM68.32 11.70C68.32 11.30 68.64 11.06 69.30 10.98L71.43 10.72L71.43 10.84C71.43 11.79 70.74 12.52 69.51 12.52C68.73 12.52 68.32 12.18 68.32 11.70ZM79.73 6.83L77.91 12.10L77.74 12.10L75.92 6.83L74.02 6.83L76.92 14.45L76.02 16.58L77.92 16.58L81.63 6.83ZM82.29 8.79C82.29 10.08 83.17 10.68 85.12 10.95L85.33 10.98C86.09 11.07 86.80 11.13 86.80 11.65C86.80 12.19 86.14 12.49 85.46 12.49C84.56 12.49 83.64 12.04 83.20 11.13L81.79 12.01C82.43 12.99 83.50 13.97 85.41 13.97C87.26 13.97 88.54 12.98 88.54 11.62C88.54 10.35 87.71 9.79 85.48 9.49L85.27 9.46C84.55 9.37 84.03 9.28 84.03 8.78C84.03 8.36 84.39 8.09 85.02 8.09C85.95 8.09 86.65 8.62 87.18 9.25L88.45 8.25C87.51 7.27 86.51 6.64 85.08 6.64C83.47 6.64 82.29 7.50 82.29 8.79Z"></path></g><!----><g data-v-423bf9ae="" id="b8672dec-b11f-4c93-a2e0-5150f201a387" transform="matrix(1.0739827077247133,0,0,1.0739827077247133,-6.660845071232266,-7.5326580543210255)" stroke="none" fill="black"><g data-name="Group"><path d="M64.2 7.2a21.2 21.2 0 1 0 21.1 21.2A21.2 21.2 0 0 0 64.2 7.2zm5 15.8h2.5a2 2 0 0 1 0 4h-2.5a8.8 8.8 0 0 1-7.5 6l7.1 6.4a2 2 0 0 1 .1 2.8 1.9 1.9 0 0 1-1.5.7 2 2 0 0 1-1.4-.6L55.3 32.2a1.9 1.9 0 0 1-.5-2.1 2 2 0 0 1 1.9-1.1H61a5 5 0 0 0 3.9-2h-8.2a2 2 0 0 1 0-4h8.2a4.1 4.1 0 0 0-3.9-3h-4.3a2 2 0 0 1 0-4h15a2 2 0 0 1 0 4h-3.6a18.2 18.2 0 0 1 1.1 3z" data-name="Group"></path><g data-name="Group"><rect x="7" y="57" width="13" height="34" rx="2.5" ry="2.5" data-name="Group"></rect><path d="M90.2 58.8h-.1a3.7 3.7 0 0 0-5.1-.5c-3.6 3-8.9 7.3-12.8 10.3a9.2 9.2 0 0 1-5.7 2.2L54 71a9.7 9.7 0 0 1-5.3-1.3l-1.1-.7a3.7 3.7 0 0 1-1.7-2.8 3.5 3.5 0 0 1 2.9-3.8l10.4-2a3.7 3.7 0 0 0 2.8-4.6 3.8 3.8 0 0 0-3.7-2.5h-.1l-13.5-.5A26.4 26.4 0 0 0 31 55.9L22.8 60v22.6l7.1-1.4a32.5 32.5 0 0 1 7-.4l20.6.9a26.4 26.4 0 0 0 18.1-6l14.2-11.9a3.5 3.5 0 0 0 .4-5z" data-name="Group"></path></g></g></g><!----></svg>