<svg xmlns="http://www.w3.org/2000/svg" version="1.1" xmlns:xlink="http://www.w3.org/1999/xlink" xmlns:svgjs="http://svgjs.com/svgjs" width="1550" height="1550" preserveAspectRatio="none" viewBox="0 0 1550 1550"><g mask="url(&quot;#SvgjsMask1071&quot;)" fill="none"><path d="M255.49308586137033-222.56311148918553L-60.02020808612701 23.942890043783024 186.48579344684154 339.45618399128034 501.99908739433886 92.95018245831182z" fill="rgba(28, 83, 142, 0.4)" class="triangle-float2"></path><path d="M1172.449,1679.022C1310.672,1673.789,1398.514,1545.367,1462.772,1422.876C1521.34,1311.232,1550.587,1182.431,1491.335,1071.148C1428.702,953.514,1305.549,884.316,1172.449,877.606C1025.595,870.202,866.512,908.837,792.543,1035.918C718.25,1163.557,766.26,1319.246,841.376,1446.402C914.902,1570.866,1027.993,1684.491,1172.449,1679.022" fill="rgba(28, 83, 142, 0.4)" class="triangle-float2"></path><path d="M148.01056425777722 1054.0675440700782L485.63384923608857 1290.4739132870168 384.4169334747159 716.4442590917668z" fill="rgba(28, 83, 142, 0.4)" class="triangle-float1"></path><path d="M1055.142672432385 1243.2405195845488L580.49648060128 1415.4855102669299 913.6183945415873 1705.0639721311973z" fill="rgba(28, 83, 142, 0.4)" class="triangle-float3"></path><path d="M1662.983,644.677C1793.586,641.209,1913.944,573.863,1978.919,460.517C2043.549,347.774,2033.975,213.606,1977.065,96.776C1910.727,-39.411,1813.828,-174.157,1662.983,-188.071C1490.69,-203.963,1309.286,-125.693,1229.463,27.818C1153.87,173.194,1222.37,344.045,1316.585,478.104C1395.543,590.454,1525.71,648.322,1662.983,644.677" fill="rgba(28, 83, 142, 0.4)" class="triangle-float1"></path><path d="M882.2715390019769-239.16568090327937L557.8530215772012-59.33756023583831 737.6811422446422 265.0809571889374 1062.0996596694179 85.25283652149633z" fill="rgba(28, 83, 142, 0.4)" class="triangle-float1"></path><path d="M1074.2153662043825 1367.6386271580084L1110.6804215004827 1180.0421804918767 811.053223853235 1219.1428208807922z" fill="rgba(28, 83, 142, 0.4)" class="triangle-float1"></path><path d="M1496.322,1593.728C1658.088,1604.853,1842.381,1574.752,1920.676,1432.76C1997.455,1293.517,1909.87,1132.445,1824.72,998.158C1747.503,876.382,1640.516,763.279,1496.322,763.528C1352.46,763.776,1238.363,872.771,1169.881,999.288C1105.019,1119.117,1096.718,1261.17,1162.306,1380.603C1230.444,1504.68,1355.101,1584.015,1496.322,1593.728" fill="rgba(28, 83, 142, 0.4)" class="triangle-float3"></path><path d="M634.211,1296.548C737.964,1301.084,836.292,1246.577,889.386,1157.323C943.679,1066.053,948.194,951.335,893.833,860.105C840.65,770.853,738.105,728.509,634.211,729.086C531.421,729.657,428.238,772.438,379.533,862.959C332.828,949.764,365.034,1051.589,414.957,1136.584C464.066,1220.192,537.34,1292.313,634.211,1296.548" fill="rgba(28, 83, 142, 0.4)" class="triangle-float2"></path><path d="M930.383,2105.092C1067.788,2095.555,1191.616,2023.889,1259.253,1903.904C1325.669,1786.086,1319.543,1645.366,1257.195,1525.346C1188.974,1394.021,1078.098,1279.819,930.383,1270.835C768.072,1260.963,611.427,1342.174,526.61,1480.912C438.072,1625.736,419.437,1813.273,511.633,1955.796C597.901,2089.155,771.935,2116.09,930.383,2105.092" fill="rgba(28, 83, 142, 0.4)" class="triangle-float2"></path><path d="M-154.4217029863611 1285.579946426304L61.03048276789272 1425.4962318261169 200.94676816770553 1210.044046071863-14.505417586548305 1070.1277606720503z" fill="rgba(28, 83, 142, 0.4)" class="triangle-float2"></path></g><defs><mask id="SvgjsMask1071"><rect width="1550" height="1550" fill="#ffffff"></rect></mask><style>
            @keyframes float1 {
                0%{transform: translate(0, 0)}
                50%{transform: translate(-10px, 0)}
                100%{transform: translate(0, 0)}
            }

            .triangle-float1 {
                animation: float1 5s infinite;
            }

            @keyframes float2 {
                0%{transform: translate(0, 0)}
                50%{transform: translate(-5px, -5px)}
                100%{transform: translate(0, 0)}
            }

            .triangle-float2 {
                animation: float2 4s infinite;
            }

            @keyframes float3 {
                0%{transform: translate(0, 0)}
                50%{transform: translate(0, -10px)}
                100%{transform: translate(0, 0)}
            }

            .triangle-float3 {
                animation: float3 6s infinite;
            }
        </style></defs></svg>