<svg xmlns="http://www.w3.org/2000/svg" version="1.1" xmlns:xlink="http://www.w3.org/1999/xlink" xmlns:svgjs="http://svgjs.com/svgjs" width="1550" height="1550" preserveAspectRatio="none" viewBox="0 0 1550 1550"><g mask="url(&quot;#SvgjsMask1335&quot;)" fill="none"><path d="M11.63 464.25L149.21 464.25L149.21 603.97L11.63 603.97z" stroke="#e73635"></path><path d="M388.59 428.63 a86.45 86.45 0 1 0 172.9 0 a86.45 86.45 0 1 0 -172.9 0z" fill="#037b0b"></path><path d="M1425.69 1212.36 a123.03 123.03 0 1 0 246.06 0 a123.03 123.03 0 1 0 -246.06 0z" fill="#037b0b"></path><path d="M323.8 1162.31L345.9 1162.31L345.9 1184.41L323.8 1184.41z" stroke="#037b0b"></path><path d="M296.41 563.35L388.76 563.35L388.76 685.42L296.41 685.42z" fill="#037b0b"></path><path d="M949.77 1015.78a95.4 95.4 0 1 0 73.05-176.26z" stroke="#d3b714"></path><path d="M1163.96 741.37a34.76 34.76 0 1 0-66.98 18.62z" fill="#e73635"></path><path d="M470.22 585.33L536.28 585.33L536.28 656.28L470.22 656.28z" stroke="#037b0b"></path><path d="M119.66 403.15L219.53 403.15L219.53 446.52L119.66 446.52z" fill="#e73635"></path><path d="M1139.69 633.69 a57.61 57.61 0 1 0 115.22 0 a57.61 57.61 0 1 0 -115.22 0z" fill="#e73635"></path><path d="M1315.14 1498.83L1370.09 1498.83L1370.09 1582.44L1315.14 1582.44z" stroke="#037b0b"></path><path d="M977.59 1498.6L1021 1498.6L1021 1512.98L977.59 1512.98z" fill="#d3b714"></path><path d="M810.79 1347.37L955.32 1347.37L955.32 1491.9L810.79 1491.9z" fill="#e73635"></path></g><defs><mask id="SvgjsMask1335"><rect width="1550" height="1550" fill="#ffffff"></rect></mask></defs></svg>